<svg width="23" height="25" viewBox="0 0 23 25" fill="none" xmlns="http://www.w3.org/2000/svg">
<path d="M21.5747 3.58474L18.48 0.851053C17.8611 0.309474 17.0358 0 16.1516 0H3.30105C2.41684 0 1.59158 0.309474 0.972632 0.851053C0.353684 1.39263 0 2.11474 0 2.88842V21.6374C0 23.2105 1.47368 24.5 3.27158 24.5H19.2168C21.0147 24.5 22.4884 23.2105 22.4884 21.6374V5.59632C22.5474 4.84842 22.1937 4.12632 21.5747 3.58474ZM20.72 4.33263C21.0147 4.59053 21.1916 4.9 21.28 5.23526H17.0358C16.7705 5.23526 16.5642 5.05474 16.5642 4.82263V1.10895C16.9474 1.18632 17.3011 1.34105 17.5958 1.59895L20.72 4.33263ZM19.2758 23.4426H3.30105C2.15158 23.4426 1.23789 22.6432 1.23789 21.6374V2.86263C1.23789 2.37263 1.44421 1.93421 1.85684 1.57316C2.24 1.23789 2.77053 1.03158 3.33053 1.03158L15.3853 1.05737V4.82263C15.3853 5.62211 16.1516 6.29263 17.0653 6.29263H21.3389V21.6116C21.3389 22.6174 20.3958 23.4426 19.2758 23.4426Z" fill="black"/>
<path d="M16.6231 14.0811H9.31365C8.98944 14.0811 8.6947 14.3132 8.6947 14.6226C8.6947 14.9063 8.95996 15.1642 9.31365 15.1642H16.6526C16.9768 15.1642 17.2715 14.9321 17.2715 14.6226C17.2421 14.3132 16.9768 14.0811 16.6231 14.0811Z" fill="black"/>
<path d="M16.6231 9.38736H9.31365C8.98944 9.38736 8.6947 9.61946 8.6947 9.92894C8.6947 10.2126 8.95996 10.4705 9.31365 10.4705H16.6526C16.9768 10.4705 17.2715 10.2384 17.2715 9.92894C17.2421 9.61946 16.9768 9.38736 16.6231 9.38736Z" fill="black"/>
<path d="M16.6231 18.7489H9.31365C8.98944 18.7489 8.6947 18.9811 8.6947 19.2905C8.6947 19.6 8.95996 19.8321 9.31365 19.8321H16.6526C16.9768 19.8321 17.2715 19.6 17.2715 19.2905C17.2715 18.9811 16.9768 18.7489 16.6231 18.7489Z" fill="black"/>
<path d="M6.60209 9.10368H5.95366C5.62945 9.10368 5.33472 9.33579 5.33472 9.64526V10.2126C5.33472 10.4963 5.59998 10.7542 5.95366 10.7542H6.60209C6.9263 10.7542 7.22103 10.5221 7.22103 10.2126V9.64526C7.19156 9.33579 6.9263 9.10368 6.60209 9.10368Z" fill="black"/>
<path d="M6.60209 13.7974H5.95366C5.62945 13.7974 5.33472 14.0295 5.33472 14.3389V14.9063C5.33472 15.19 5.59998 15.4479 5.95366 15.4479H6.60209C6.9263 15.4479 7.22103 15.2158 7.22103 14.9063V14.3132C7.19156 14.0295 6.9263 13.7974 6.60209 13.7974Z" fill="black"/>
<path d="M6.60209 18.4653H5.95366C5.62945 18.4653 5.33472 18.6974 5.33472 19.0068V19.5742C5.33472 19.8579 5.59998 20.1158 5.95366 20.1158H6.60209C6.9263 20.1158 7.22103 19.8837 7.22103 19.5742V19.0068C7.19156 18.6974 6.9263 18.4653 6.60209 18.4653Z" fill="black"/>
</svg>
