<svg width="25" height="21" viewBox="0 0 25 21" fill="none" xmlns="http://www.w3.org/2000/svg">
<path d="M24.7082 9.72763L21.4008 6.42023C21.0117 6.03113 20.428 6.03113 20.0389 6.42023L19.358 7.10117L21.6926 9.4358H10.2626C9.72763 9.4358 9.28988 9.87354 9.28988 10.4086C9.28988 10.9436 9.72763 11.3813 10.2626 11.3813H21.6926L19.358 13.716L20.0389 14.3969C20.428 14.786 21.0117 14.786 21.4008 14.3969L24.7082 11.0895C25.0973 10.7004 25.0973 10.1167 24.7082 9.72763ZM5.39883 20.8171C2.48054 20.8171 0.0972763 18.5311 0 15.6128V5.20428C0.0972763 2.28599 2.48054 0 5.39883 0H11.6732C14.5428 0 16.8288 2.33463 16.8774 5.20428C16.8774 5.78794 16.4397 6.22568 15.856 6.22568C15.2724 6.22568 14.8346 5.78794 14.8346 5.20428C14.8346 3.45331 13.4241 2.0428 11.6732 2.0428H5.39883C3.64786 2.0428 2.14008 3.40467 2.0428 5.20428V15.6128C2.14008 17.3638 3.59922 18.7743 5.39883 18.7743H11.6732C13.4241 18.7743 14.8346 17.3638 14.8346 15.6128C14.8346 15.0292 15.2724 14.5914 15.856 14.5914C16.4397 14.5914 16.8774 15.0292 16.8774 15.6128C16.8774 18.4825 14.5428 20.8171 11.6732 20.8171H5.39883Z" fill="#D92550"/>
</svg>
